<?xml version="1.0" encoding="UTF-8"?>
<!DOCTYPE svg PUBLIC "-//W3C//DTD SVG 1.1//EN" "http://www.w3.org/Graphics/SVG/1.1/DTD/svg11.dtd">
<!-- Creator: CorelDRAW -->
<svg xmlns="http://www.w3.org/2000/svg" xml:space="preserve" width="126.93mm" height="103.992mm" version="1.1" style="shape-rendering:geometricPrecision; text-rendering:geometricPrecision; image-rendering:optimizeQuality; fill-rule:evenodd; clip-rule:evenodd"
viewBox="0 0 12693 10399"
 xmlns:xlink="http://www.w3.org/1999/xlink">
 <defs>
  <style type="text/css">
   <![CDATA[
    .fil4 {fill:yellow;fill-rule:nonzero}
    .fil3 {fill:#FFE600;fill-rule:nonzero}
    .fil2 {fill:#FFDCBD;fill-rule:nonzero}
    .fil1 {fill:#C276C2;fill-rule:nonzero}
    .fil0 {fill:#B8A6FF;fill-rule:nonzero}
    .fil5 {fill:black;fill-rule:nonzero}
   ]]>
  </style>
 </defs>
 <g id="Layer_x0020_1">
  <metadata id="CorelCorpID_0Corel-Layer"/>
  <g id="vc070854.ai">
   <g>
    <path class="fil0" d="M6409 8125c546,-120 1516,388 909,1045 -485,179 -818,-418 -1243,149 -122,-30 -273,-30 -394,-30 -637,-537 272,-1105 728,-1164z"/>
    <path class="fil1" d="M6318 6661c697,120 910,986 910,1583 -395,388 -1547,269 -1396,-448 152,-388 -30,-955 486,-1135z"/>
    <path class="fil2" d="M5590 3765c970,59 2335,1612 1183,2329 -1153,508 -2457,-1016 -1760,-2001 122,-358 395,-119 577,-328z"/>
    <path class="fil3" d="M11565 4004c849,119 455,1284 242,1761 -333,568 -879,-149 -1182,269 -304,269 -759,-59 -1062,179 -1092,30 -182,-955 -273,-1463 61,-119 394,-418 516,-448 424,60 424,538 364,866 242,-328 424,-926 970,-836 61,-60 364,-269 425,-328z"/>
    <path class="fil4" d="M10230 92c364,-30 577,328 577,656 485,-448 1152,-59 1152,568 486,478 546,1135 546,1762 -91,59 -151,149 -242,209 -789,239 -486,-687 -880,-986 -30,-716 -728,-268 -1092,-567 -364,329 -971,-119 -1244,418 -212,358 -667,179 -849,597 -880,329 -698,-896 -940,-1314 0,-119 151,-537 242,-627 607,-269 547,687 1002,627 394,-358 30,-1105 697,-1224 243,0 516,269 485,537 152,-238 243,-537 546,-656z"/>
    <path class="fil5" d="M10896 1875c73,0 1533,660 1552,2242 4,320 -50,677 -187,1075 -815,2362 -4382,1647 -4800,-542 -418,-2189 1651,-2970 2884,-2883 0,0 176,195 -44,173 -220,-21 -2510,22 -2554,2146 -44,2124 2554,2493 3655,1648 1101,-846 1277,-2753 -594,-3750l88 -109z"/>
    <path class="fil5" d="M12349 3197c0,0 341,-190 344,-648 1,-169 -156,-362 -333,-565 -584,-672 11,-1398 -88,-1648 -99,-249 -771,672 -859,1214 -88,542 -352,-758 -319,-1106 33,-346 -121,109 -319,456 -199,347 -276,412 -287,574 -11,163 -66,-574 -462,-856 -396,-282 -539,-629 -705,-618 -165,11 496,423 320,824 -176,401 -88,509 -88,509 0,0 -242,-466 -639,-455 -396,11 -748,-184 -704,-141 44,44 528,184 484,618 -44,433 -99,629 -528,509 -430,-119 -430,-606 -397,-682 33,-76 -253,10 -132,617 121,607 -66,857 88,922 154,64 -44,10 33,-293 78,-304 -121,-683 -33,-704 88,-22 375,455 705,357 330,-97 495,-466 407,-704 -88,-239 -44,-369 -44,-369 0,0 286,-11 452,163 165,173 110,509 319,455 209,-54 66,-304 154,-585 88,-282 33,-531 33,-531 0,0 176,184 374,422 198,239 66,716 330,835 265,119 254,-174 330,-488 78,-314 188,-282 188,-282 0,0 110,1041 407,1019 297,-22 165,-650 528,-1019 0,0 -220,553 199,1062 418,510 415,980 242,1138z"/>
    <path class="fil5" d="M12041 5311c0,0 -375,-185 -430,-943 -55,-759 77,-997 -11,-1051 -88,-55 -616,726 -594,1203 22,477 -320,411 -77,921 242,509 -55,260 -220,-325 -166,-585 -815,-531 -815,-531 0,0 462,141 319,704 -143,564 -209,802 -121,921 88,119 -583,174 -429,-704 154,-878 -121,-846 -121,-846 0,0 297,402 -187,759 -485,358 -254,791 -254,791 0,0 188,152 165,55 -21,-98 -121,-380 45,-542 165,-163 308,-412 308,-412 0,0 -187,303 -132,683 55,379 187,574 473,498 286,-76 462,-97 363,-618 -99,-520 88,-812 77,-867 -11,-54 -22,-173 -99,-227 -77,-54 198,0 308,422 111,423 34,813 430,889 396,76 187,-509 66,-791 -121,-282 154,-531 176,-845 22,-315 66,-467 154,-596 88,-131 -66,585 22,899 88,314 77,726 297,834 220,109 287,-281 287,-281z"/>
    <path class="fil5" d="M5909 3078c0,0 -473,-1116 -870,-1159 -396,-44 -1188,271 -1034,704 154,433 484,1127 825,1105 341,-21 1079,-650 1079,-650z"/>
    <path class="fil5" d="M5711 3046c0,0 782,-293 1024,-163 242,130 -342,1030 -1806,1311 -1464,282 -1376,-140 -1266,-227 110,-87 2048,-921 2048,-921z"/>
    <path class="fil5" d="M4478 3988c56,5 297,-162 352,174 55,336 55,802 -264,769 -319,-32 -749,-997 -88,-943z"/>
    <path class="fil5" d="M7007 4574c0,0 203,1396 -481,1611 -683,215 -1396,-544 -1541,-745 -145,-200 -233,-515 -254,-751 -22,-237 -117,-137 -131,21 -15,158 73,701 480,1153 407,451 952,751 1519,572 567,-179 553,-937 545,-1295 -7,-358 -163,-738 -137,-566z"/>
    <path class="fil5" d="M6388 5591c0,0 109,-47 153,-118 44,-72 102,-119 146,-83 43,36 14,483 -400,501 0,0 -302,22 -408,-182 0,0 -39,-79 113,-76 153,4 326,-12 396,-42z"/>
    <path class="fil5" d="M5192 4492c0,0 167,-4 229,100 62,104 -119,229 -341,118 0,0 -33,-43 3,-96 37,-54 51,-121 109,-122z"/>
    <path class="fil5" d="M6534 4205c0,0 -44,-153 -76,-128 -33,25 -41,57 -91,39 -51,-18 -131,61 -37,204 95,143 157,125 182,79 25,-47 41,-126 22,-194z"/>
    <path class="fil5" d="M6544 6461c0,0 147,519 -217,436 -365,-84 -171,-442 -156,-448 15,-6 63,3 60,48 -3,44 14,157 114,157 101,0 130,-122 127,-175 -3,-54 52,-103 72,-18z"/>
    <path class="fil5" d="M8441 5820c0,0 -374,1106 -1497,986 0,0 -265,-86 -77,-195 187,-108 748,-97 1244,-856 495,-758 330,65 330,65z"/>
    <path class="fil5" d="M5596 6784c0,0 410,-124 258,201 -153,324 -1462,839 -1611,771 -150,-68 1353,-972 1353,-972z"/>
    <path class="fil5" d="M4874 8064c0,0 -884,-748 -3676,-553 -890,62 -1199,233 -1198,458 3,483 1428,1215 1638,1666 308,661 -815,390 -870,423 -55,32 407,281 936,21 528,-260 297,-672 -374,-1051 -474,-267 -991,-675 -1051,-941 -24,-112 31,-199 203,-240 583,-141 2488,-542 4348,282l44 -65z"/>
    <path class="fil5" d="M5719 6889c0,0 198,-162 154,141 -44,303 -253,2135 -341,2309 -88,173 -253,-455 -154,-1236 99,-780 342,-1215 341,-1214z"/>
    <path class="fil5" d="M6702 6633c0,0 462,433 583,1311 121,878 187,1160 121,1203 -66,44 -451,-1571 -506,-1820 -55,-250 -165,-488 -231,-542 -66,-54 33,-152 33,-152z"/>
    <path class="fil5" d="M6505 6948c0,0 182,-188 304,-94 122,94 139,411 52,386 -87,-26 -426,-155 -426,-155 0,0 -243,248 -365,172 -122,-77 -35,-411 0,-420 34,-8 435,111 435,111z"/>
    <path class="fil5" d="M7230 8405c0,0 -705,390 -1354,81 0,0 -132,-86 -5,-92 126,-5 1144,-43 1337,-92 193,-49 22,103 22,103z"/>
    <path class="fil5" d="M7312 9180c28,0 144,-5 122,87 -22,92 -529,260 -689,81 -159,-179 -197,-336 -258,-260 -60,76 -171,282 -385,249 -215,-33 -419,-157 -364,-190 55,-32 232,125 303,-32 72,-157 358,-434 573,-385 214,49 275,390 335,428 61,38 363,22 363,22z"/>
    <path class="fil5" d="M7059 9310c45,11 248,228 61,650 0,0 -215,-390 -160,-579 55,-190 99,-71 99,-71z"/>
    <path class="fil5" d="M7059 10052c0,0 88,-37 204,44 116,81 209,309 154,303 -55,-5 -352,-162 -369,-206 -16,-43 11,-141 11,-141z"/>
    <path class="fil5" d="M5559 9283c6,-22 146,-47 146,115 0,162 -327,448 -581,459 -252,11 435,-574 435,-574z"/>
    <path class="fil5" d="M5049 9782c0,0 66,-44 154,97 88,141 201,374 100,383 -101,9 -450,-352 -254,-480z"/>
   </g>
  </g>
 </g>
</svg>
